<svg width="111" height="22" viewBox="0 0 111 22" fill="none" xmlns="http://www.w3.org/2000/svg">
<path d="M99.2245 22C96.0403 22 91.4914 21.3797 87.8523 20.3872L86.8185 14.515C90.4989 15.8383 93.4764 16.2932 97.1155 16.2932C101.582 16.2932 103.443 15.9211 103.194 14.6805C102.615 11.1241 86.1155 15.8383 84.5854 7.03008C83.717 2.23308 88.2245 0 95.5027 0C97.9839 0 102.326 0.454889 106.048 1.15789L107.082 6.90602C104.021 6.28572 100.589 5.83083 97.4876 5.83083C93.1042 5.83083 91.326 6.32707 91.4914 7.3609C92.029 10.3383 108.57 6.03759 110.142 15.0526C111.052 19.9737 106.503 22 99.2245 22Z" fill="currentColor"/>
<path d="M68.1882 21.3383L53.6318 0.661621H61.2821L71.7032 15.4661L76.8724 0.661621H84.5227L77.2445 21.3383H68.1882Z" fill="#21201C"/>
<path d="M45.5928 22C42.4086 22 37.8597 21.3797 34.2206 20.3872L33.1868 14.515C36.8672 15.8383 39.8447 16.2932 43.4837 16.2932C47.9499 16.2932 49.8108 15.9211 49.5627 14.6805C48.9837 11.1241 32.4837 15.8383 30.9537 7.03008C30.0853 2.23308 34.5928 0 41.871 0C44.3522 0 48.6943 0.454889 52.4161 1.15789L53.4499 6.90602C50.3898 6.28572 46.9574 5.83083 43.8559 5.83083C39.4725 5.83083 37.6943 6.32707 37.8597 7.3609C38.3973 10.3383 54.9386 6.03759 56.5101 15.0526C57.4198 19.9737 52.871 22 45.5928 22Z" fill="currentColor"/>
<path d="M14.5564 21.3383L0 0.661621H7.65037L18.0714 15.4661L23.2406 0.661621H30.891L23.6128 21.3383H14.5564Z" fill="#21201C"/>
</svg>
